<?xml version="1.0" ?><svg viewBox="0 0 32 32" xmlns="http://www.w3.org/2000/svg"><g data-name="Layer 21" id="Layer_21"><path d="M25.9,6.1A14,14,0,0,0,6.1,25.9,14,14,0,0,0,25.9,6.1ZM24.58,24.58A12.14,12.14,0,1,1,28.13,16,12.06,12.06,0,0,1,24.58,24.58Z"/><path d="M18.37,14a.93.93,0,0,0,1.86,0V7.42a.86.86,0,0,0-.07-.36h0A.73.73,0,0,0,20,6.78h0l0,0h0a.73.73,0,0,0-.28-.19.86.86,0,0,0-.36-.07H12.7a.93.93,0,0,0,0,1.86h4.35L6.76,18.64a.94.94,0,0,0,0,1.32.94.94,0,0,0,1.32,0L18.37,9.67Z"/><path d="M25.24,12a.94.94,0,0,0-1.32,0L13.63,22.33V18a.93.93,0,1,0-1.86,0v6.6a.93.93,0,0,0,.26.65h0l0,0h0a.93.93,0,0,0,.65.26h6.6a.93.93,0,0,0,0-1.86H15L25.24,13.36A.94.94,0,0,0,25.24,12Z"/></g></svg>